<?xml version="1.0" encoding="UTF-8" standalone="no"?>
<!-- Created with Inkscape (http://www.inkscape.org/) -->

<svg
   xmlns:dc="http://purl.org/dc/elements/1.1/"
   xmlns:cc="http://creativecommons.org/ns#"
   xmlns:rdf="http://www.w3.org/1999/02/22-rdf-syntax-ns#"
   xmlns:svg="http://www.w3.org/2000/svg"
   xmlns="http://www.w3.org/2000/svg"
   xmlns:xlink="http://www.w3.org/1999/xlink"
   xmlns:sodipodi="http://sodipodi.sourceforge.net/DTD/sodipodi-0.dtd"
   xmlns:inkscape="http://www.inkscape.org/namespaces/inkscape"
   width="130"
   height="130"
   id="svg9266"
   sodipodi:version="0.32"
   inkscape:version="0.48.2 r9819"
   version="1.0"
   sodipodi:docname="Infobox_info_icon.svg"
   inkscape:output_extension="org.inkscape.output.svg.inkscape">
  <defs
     id="defs9268">
    <inkscape:perspective
       sodipodi:type="inkscape:persp3d"
       inkscape:vp_x="0 : 50 : 1"
       inkscape:vp_y="0 : 1000 : 0"
       inkscape:vp_z="100 : 50 : 1"
       inkscape:persp3d-origin="50 : 33.333333 : 1"
       id="perspective13" />
    <linearGradient
       id="linearGradient9284">
      <stop
         style="stop-color:#000000;stop-opacity:0;"
         offset="0"
         id="stop9286" />
      <stop
         style="stop-color:#000000;stop-opacity:0.3764706;"
         offset="1"
         id="stop9288" />
    </linearGradient>
    <radialGradient
       spreadMethod="pad"
       gradientUnits="userSpaceOnUse"
       r="57"
       fy="-90"
       fx="-69"
       cy="-90"
       cx="-69"
       id="radialGradient2574"
       xlink:href="#linearGradient9284"
       inkscape:collect="always" />
    <linearGradient
       id="linearGradient2568">
      <stop
         id="stop2570"
         offset="0"
         style="stop-color:#000000;stop-opacity:0;" />
      <stop
         id="stop2572"
         offset="1"
         style="stop-color:#000000;stop-opacity:0.3764706;" />
    </linearGradient>
    <inkscape:perspective
       id="perspective2565"
       inkscape:persp3d-origin="50 : 33.333333 : 1"
       inkscape:vp_z="100 : 50 : 1"
       inkscape:vp_y="0 : 1000 : 0"
       inkscape:vp_x="0 : 50 : 1"
       sodipodi:type="inkscape:persp3d" />
  </defs>
  <sodipodi:namedview
     id="base"
     pagecolor="#ffffff"
     bordercolor="#666666"
     borderopacity="1.0"
     inkscape:pageopacity="0.0"
     inkscape:pageshadow="2"
     inkscape:zoom="3.0084078"
     inkscape:cx="124.27943"
     inkscape:cy="67.504237"
     inkscape:document-units="px"
     inkscape:current-layer="layer1"
     inkscape:window-width="1280"
     inkscape:window-height="752"
     inkscape:window-x="0"
     inkscape:window-y="22"
     showgrid="false"
     fit-margin-top="0"
     fit-margin-left="0"
     fit-margin-right="0"
     fit-margin-bottom="0"
     inkscape:window-maximized="0" />
  <metadata
     id="metadata9271">
    <rdf:RDF>
      <cc:Work
         rdf:about="">
        <dc:format>image/svg+xml</dc:format>
        <dc:type
           rdf:resource="http://purl.org/dc/dcmitype/StillImage" />
        <dc:title></dc:title>
      </cc:Work>
    </rdf:RDF>
  </metadata>
  <g
     inkscape:label="Layer 1"
     inkscape:groupmode="layer"
     id="layer1"
     transform="translate(-15,-15)">
    <path
       style="fill:#4b4b4b;fill-opacity:1;fill-rule:nonzero;stroke:none"
       d="m 80,15 c -35.880002,0 -65,29.120001 -65,65 0,35.88 29.120002,65 65,65 35.88,0 65.00001,-29.12 65,-65 0,-35.88 -29.11999,-65 -65,-65 z m 0,10 c 30.36,1e-6 55,24.639998 55,55 0,30.36 -24.64,55 -55,55 -30.36,1e-5 -55,-24.64 -55,-55 0,-30.359998 24.639999,-55 55,-55 z"
       id="p3"
       inkscape:connector-curvature="0" />
    <path
       sodipodi:type="arc"
       style="fill:#4b4b4b;fill-opacity:1;fill-rule:nonzero;stroke:none"
       id="p2"
       sodipodi:cx="47.989277"
       sodipodi:cy="18.23056"
       sodipodi:rx="9.383378"
       sodipodi:ry="9.1152821"
       d="m 57.372655,18.23056 c 0,5.034232 -4.201082,9.115282 -9.383378,9.115282 -5.182297,0 -9.383378,-4.08105 -9.383378,-9.115282 0,-5.034231 4.201081,-9.1152818 9.383378,-9.1152818 5.182296,0 9.383378,4.0810508 9.383378,9.1152818 z"
       transform="matrix(1.1989286,0,0,1.2341911,21.214284,28.750005)" />
    <path
       style="font-size:106.63394165px;font-style:normal;font-variant:normal;font-weight:bold;font-stretch:normal;text-align:center;line-height:100%;writing-mode:lr-tb;text-anchor:middle;fill:#4b4b4b;fill-opacity:1;stroke:none;font-family:CentSchbook BT"
       d="m 90.664607,110.95791 c -0.06843,2.73023 1.211797,3.49783 4.327666,3.81777 L 100,114.87614 100,120 l -39.072643,0 0,-5.12386 5.502319,-0.10046 c 3.291191,-0.0918 4.082161,-1.37097 4.327666,-3.81777 l 0,-30.81067 C 70.792255,75.26779 64.461301,76.03373 60,76.17876 L 60,71.10515 90.664607,70"
       id="p1"
       sodipodi:nodetypes="cccccccccccc"
       inkscape:connector-curvature="0" />
  </g>
</svg>
