<?xml version="1.0" encoding="UTF-8" standalone="no"?>
<!-- Created with Inkscape (http://www.inkscape.org/) -->

<svg
   xmlns:dc="http://purl.org/dc/elements/1.1/"
   xmlns:cc="http://creativecommons.org/ns#"
   xmlns:rdf="http://www.w3.org/1999/02/22-rdf-syntax-ns#"
   xmlns:svg="http://www.w3.org/2000/svg"
   xmlns="http://www.w3.org/2000/svg"
   xmlns:sodipodi="http://sodipodi.sourceforge.net/DTD/sodipodi-0.dtd"
   xmlns:inkscape="http://www.inkscape.org/namespaces/inkscape"
   width="585"
   height="325.98727"
   id="svg3534"
   version="1.1"
   inkscape:version="0.48.2 r9819"
   sodipodi:docname="inspect.svg"
   inkscape:export-filename="/Users/fhermeni/Research/Code/Btrpcc/sandbox/src/main/webapp/img/inspect.png"
   inkscape:export-xdpi="15.38"
   inkscape:export-ydpi="15.38">
  <defs
     id="defs3536" />
  <sodipodi:namedview
     id="base"
     pagecolor="#ffffff"
     bordercolor="#666666"
     borderopacity="1.0"
     inkscape:pageopacity="0.0"
     inkscape:pageshadow="2"
     inkscape:zoom="1.3060676"
     inkscape:cx="338.40051"
     inkscape:cy="77.729113"
     inkscape:document-units="px"
     inkscape:current-layer="layer1"
     showgrid="true"
     inkscape:snap-global="true"
     inkscape:window-width="1246"
     inkscape:window-height="659"
     inkscape:window-x="20"
     inkscape:window-y="42"
     inkscape:window-maximized="0"
     fit-margin-top="0"
     fit-margin-left="0"
     fit-margin-right="0"
     fit-margin-bottom="0">
    <inkscape:grid
       type="xygrid"
       id="grid3555"
       empspacing="5"
       visible="true"
       enabled="true"
       snapvisiblegridlinesonly="true" />
  </sodipodi:namedview>
  <metadata
     id="metadata3539">
    <rdf:RDF>
      <cc:Work
         rdf:about="">
        <dc:format>image/svg+xml</dc:format>
        <dc:type
           rdf:resource="http://purl.org/dc/dcmitype/StillImage" />
        <dc:title></dc:title>
      </cc:Work>
    </rdf:RDF>
  </metadata>
  <g
     inkscape:label="Calque 1"
     inkscape:groupmode="layer"
     id="layer1"
     transform="translate(-57.00005,-608.97511)">
    <rect
       style="fill:#f2f2f2;fill-opacity:1;fill-rule:nonzero;stroke:#000000;stroke-width:4;stroke-miterlimit:4;stroke-opacity:1;stroke-dasharray:none"
       id="rect3557"
       width="580"
       height="160"
       x="60.00005"
       y="610.96228"
       rx="20"
       ry="20"
       inkscape:export-xdpi="15.46"
       inkscape:export-ydpi="15.46" />
    <g
       id="g4331"
       transform="translate(20.244183,2.5432476)"
       inkscape:export-filename="/Users/fhermeni/Research/Code/Btrpcc/sandbox/src/main/webapp/img/rect3557.png"
       inkscape:export-xdpi="15.46"
       inkscape:export-ydpi="15.46">
      <text
         sodipodi:linespacing="125%"
         id="text4327"
         y="709.45422"
         x="241.31659"
         style="font-size:80px;font-style:normal;font-variant:normal;font-weight:bold;font-stretch:normal;line-height:125%;letter-spacing:0px;word-spacing:0px;fill:#000000;fill-opacity:1;stroke:none;font-family:Tahoma;-inkscape-font-specification:Tahoma Bold"
         xml:space="preserve"><tspan
           y="709.45422"
           x="241.31659"
           id="tspan4329"
           sodipodi:role="line">Inspect</tspan></text>
      <g
         transform="matrix(0.23781768,0,0,0.25726368,114.05452,624.8434)"
         id="g3515">
        <path
           d="M 342,171 C 342,265.441 265.44,342 171,342 76.559,342 0,265.441 0,171 0,76.559 76.559,0 171,0 265.44,0 342,76.559 342,171 z M 171,36 C 96.441,36 36,96.441 36,171 36,245.559 96.441,306 171,306 245.559,306 306,245.559 306,171 306,96.441 245.559,36 171,36 z"
           id="path3503"
           inkscape:connector-curvature="0" />
        <rect
           x="261.21701"
           y="335.983"
           transform="matrix(-0.7071,-0.7071,0.7071,-0.7071,345.92,851.2505)"
           width="176.08501"
           height="36"
           id="rect3505" />
        <path
           d="m 329.201,360.975 c -5.928,5.93 -5.928,15.542 0,21.471 l 107.353,107.353 c 5.93,5.928 15.542,5.928 21.471,0 l 26.838,-26.838 c 5.93,-5.928 5.93,-15.543 0,-21.471 L 377.51,334.137 c -5.928,-5.929 -15.543,-5.929 -21.471,0 l -26.838,26.838 z"
           id="path3507"
           inkscape:connector-curvature="0" />
      </g>
    </g>
    <rect
       ry="20"
       rx="20"
       y="773.9624"
       x="58.00005"
       height="160"
       width="580"
       id="rect4342"
       style="fill:#f2f2f2;fill-opacity:1;fill-rule:nonzero;stroke:#000000;stroke-width:2;stroke-miterlimit:4;stroke-opacity:1;stroke-dasharray:none"
       inkscape:export-filename="/Users/fhermeni/Research/Code/Btrpcc/sandbox/src/main/webapp/img/rect3557.png"
       inkscape:export-xdpi="15.46"
       inkscape:export-ydpi="15.46" />
    <g
       style="stroke-width:1;stroke-miterlimit:4;stroke-dasharray:none"
       transform="translate(17.433461,165.54332)"
       id="g4344"
       inkscape:export-filename="/Users/fhermeni/Research/Code/Btrpcc/sandbox/src/main/webapp/img/rect3557.png"
       inkscape:export-xdpi="15.46"
       inkscape:export-ydpi="15.46">
      <text
         xml:space="preserve"
         style="font-size:80px;font-style:normal;font-variant:normal;font-weight:bold;font-stretch:normal;line-height:125%;letter-spacing:0px;word-spacing:0px;fill:#000000;fill-opacity:1;stroke:none;font-family:Tahoma;-inkscape-font-specification:Tahoma Bold"
         x="241.31659"
         y="709.45422"
         id="text4346"
         sodipodi:linespacing="125%"><tspan
           sodipodi:role="line"
           id="tspan4348"
           x="241.31659"
           y="709.45422">Inspect</tspan></text>
      <g
         style="stroke-width:4.04286003;stroke-miterlimit:4;stroke-dasharray:none"
         id="g4350"
         transform="matrix(0.23781768,0,0,0.25726368,114.05452,624.8434)">
        <path
           style="stroke-width:4.04286003;stroke-miterlimit:4;stroke-dasharray:none"
           inkscape:connector-curvature="0"
           id="path4352"
           d="M 342,171 C 342,265.441 265.44,342 171,342 76.559,342 0,265.441 0,171 0,76.559 76.559,0 171,0 265.44,0 342,76.559 342,171 z M 171,36 C 96.441,36 36,96.441 36,171 36,245.559 96.441,306 171,306 245.559,306 306,245.559 306,171 306,96.441 245.559,36 171,36 z" />
        <rect
           style="stroke-width:4.04289865;stroke-miterlimit:4;stroke-dasharray:none"
           id="rect4354"
           height="36"
           width="176.08501"
           transform="matrix(-0.7071,-0.7071,0.7071,-0.7071,345.92,851.2505)"
           y="335.983"
           x="261.21701" />
        <path
           style="stroke-width:4.04286003;stroke-miterlimit:4;stroke-dasharray:none"
           inkscape:connector-curvature="0"
           id="path4356"
           d="m 329.201,360.975 c -5.928,5.93 -5.928,15.542 0,21.471 l 107.353,107.353 c 5.93,5.928 15.542,5.928 21.471,0 l 26.838,-26.838 c 5.93,-5.928 5.93,-15.543 0,-21.471 L 377.51,334.137 c -5.928,-5.929 -15.543,-5.929 -21.471,0 l -26.838,26.838 z" />
      </g>
    </g>
  </g>
</svg>
