<?xml version="1.0" encoding="UTF-8" standalone="no"?>
<!-- Created with Inkscape (http://www.inkscape.org/) -->

<svg
   xmlns:dc="http://purl.org/dc/elements/1.1/"
   xmlns:cc="http://creativecommons.org/ns#"
   xmlns:rdf="http://www.w3.org/1999/02/22-rdf-syntax-ns#"
   xmlns:svg="http://www.w3.org/2000/svg"
   xmlns="http://www.w3.org/2000/svg"
   xmlns:sodipodi="http://sodipodi.sourceforge.net/DTD/sodipodi-0.dtd"
   xmlns:inkscape="http://www.inkscape.org/namespaces/inkscape"
   width="440"
   height="879.8714"
   id="svg2"
   version="1.1"
   inkscape:version="0.48.2 r9819"
   sodipodi:docname="pin.svg"
   inkscape:export-filename="/Users/fhermeni/Research/Code/Btrpcc/sandbox/src/main/webapp/img/pin.png"
   inkscape:export-xdpi="6.5900002"
   inkscape:export-ydpi="6.5900002">
  <defs
     id="defs4" />
  <sodipodi:namedview
     id="base"
     pagecolor="#ffffff"
     bordercolor="#666666"
     borderopacity="1.0"
     inkscape:pageopacity="0.0"
     inkscape:pageshadow="2"
     inkscape:zoom="0.45379944"
     inkscape:cx="236.77895"
     inkscape:cy="399.37972"
     inkscape:document-units="px"
     inkscape:current-layer="layer1"
     showgrid="true"
     inkscape:window-width="1280"
     inkscape:window-height="752"
     inkscape:window-x="0"
     inkscape:window-y="0"
     inkscape:window-maximized="1"
     fit-margin-top="0"
     fit-margin-left="0"
     fit-margin-right="0"
     fit-margin-bottom="0">
    <inkscape:grid
       type="xygrid"
       id="grid2985"
       empspacing="5"
       visible="true"
       enabled="true"
       snapvisiblegridlinesonly="true" />
  </sodipodi:namedview>
  <metadata
     id="metadata7">
    <rdf:RDF>
      <cc:Work
         rdf:about="">
        <dc:format>image/svg+xml</dc:format>
        <dc:type
           rdf:resource="http://purl.org/dc/dcmitype/StillImage" />
        <dc:title />
      </cc:Work>
    </rdf:RDF>
  </metadata>
  <g
     inkscape:label="Calque 1"
     inkscape:groupmode="layer"
     id="layer1"
     transform="translate(-58.037679,-360.44817)">
    <g
       id="g3771"
       transform="translate(4.6902633e-5,-9.9999999)">
      <path
         transform="translate(-21.962368,38.073174)"
         d="m 500,552.36218 c 0,110.45695 -89.54305,200 -200,200 -110.45695,0 -200,-89.54305 -200,-200 0,-110.45695 89.54305,-200 200,-200 110.45695,0 200,89.54305 200,200 z"
         sodipodi:ry="200"
         sodipodi:rx="200"
         sodipodi:cy="552.36218"
         sodipodi:cx="300"
         id="path2989"
         style="fill:#ffffff;fill-opacity:1;fill-rule:nonzero;stroke:#000000;stroke-width:40;stroke-linejoin:round;stroke-miterlimit:4;stroke-opacity:1;stroke-dasharray:none;stroke-dashoffset:0"
         sodipodi:type="arc" />
      <g
         style="fill:#000000;fill-opacity:1;stroke:#000000;stroke-opacity:1"
         transform="matrix(0.62118941,0.47942835,-0.46639669,0.65280368,-42.452892,-141.24458)"
         id="g3769">
        <path
           inkscape:connector-curvature="0"
           id="path3763"
           transform="matrix(0.87038827,-0.49236598,0.49236598,0.87038827,-182.87424,481.97709)"
           d="m 948.84375,318.90625 7.5625,27.25 -59.09375,104.4375 -27.25,7.5625 52.21875,29.53125 -100.75,218.75 135.5625,-199.03125 52.21875,29.53125 -7.5625,-27.25 59.0938,-104.46875 27.25,-7.53125 -69.625,-39.40625 -69.62505,-39.375 z"
           style="fill:#000000;fill-opacity:1;stroke:#000000;stroke-width:1px;stroke-linecap:butt;stroke-linejoin:miter;stroke-opacity:1" />
      </g>
    </g>
    <g
       id="g3780"
       transform="translate(5e-5,9.9999999)">
      <g
         id="g3776">
        <path
           transform="matrix(0.69051029,-0.72332256,0.72332256,0.69051029,-328.65115,846.02079)"
           d="m 500,552.36218 c 0,110.45695 -89.54305,200 -200,200 -110.45695,0 -200,-89.54305 -200,-200 0,-110.45695 89.54305,-200 200,-200 110.45695,0 200,89.54305 200,200 z"
           sodipodi:ry="200"
           sodipodi:rx="200"
           sodipodi:cy="552.36218"
           sodipodi:cx="300"
           id="path3881"
           style="fill:#ffffff;fill-opacity:1;fill-rule:nonzero;stroke:#000000;stroke-width:40;stroke-linejoin:round;stroke-miterlimit:4;stroke-opacity:1;stroke-dasharray:none;stroke-dashoffset:0"
           sodipodi:type="arc" />
        <path
           style="fill:none;stroke:#000000;stroke-width:40;stroke-linecap:butt;stroke-linejoin:miter;stroke-miterlimit:4;stroke-opacity:1;stroke-dasharray:none"
           d="M 127.35591,871.76423 416.68494,1147.9684"
           id="path3887"
           inkscape:connector-curvature="0" />
      </g>
      <g
         id="g3883"
         transform="matrix(0.62118941,0.47942835,-0.46639669,0.65280368,-44.168948,279.49026)"
         style="fill:#000000;fill-opacity:1;stroke:#000000;stroke-opacity:1">
        <path
           style="fill:#000000;fill-opacity:1;stroke:#000000;stroke-width:1px;stroke-linecap:butt;stroke-linejoin:miter;stroke-opacity:1"
           d="m 948.84375,318.90625 7.5625,27.25 -59.09375,104.4375 -27.25,7.5625 52.21875,29.53125 -100.75,218.75 135.5625,-199.03125 52.21875,29.53125 -7.5625,-27.25 59.0938,-104.46875 27.25,-7.53125 -69.625,-39.40625 -69.62505,-39.375 z"
           transform="matrix(0.87038827,-0.49236598,0.49236598,0.87038827,-182.87424,481.97709)"
           id="path3885"
           inkscape:connector-curvature="0" />
      </g>
    </g>
  </g>
</svg>
